<svg xmlns="http://www.w3.org/2000/svg" xmlns:xlink="http://www.w3.org/1999/xlink" viewBox="0 0 674.97 128.92"><defs><style>.cls-1{fill:#fff;}.cls-2{isolation:isolate;}.cls-3{clip-path:url(#clip-path);}.cls-4{clip-path:url(#clip-path-2);}.cls-5{clip-path:url(#clip-path-3);}.cls-6{clip-path:url(#clip-path-4);}.cls-7{clip-path:url(#clip-path-5);}.cls-8{clip-path:url(#clip-path-6);}.cls-9{clip-path:url(#clip-path-7);}.cls-10{clip-path:url(#clip-path-8);}.cls-11{clip-path:url(#clip-path-9);}.cls-12{clip-path:url(#clip-path-10);}.cls-13,.cls-14,.cls-15{mix-blend-mode:saturation;}.cls-14{fill:#b0b0b0;}.cls-15{fill:#757575;}.cls-16{clip-path:url(#clip-path-11);}.cls-17{fill:none;}</style><clipPath id="clip-path"><rect class="cls-1" x="171.59" y="43.06" width="10.47" height="57.73"/></clipPath><clipPath id="clip-path-2"><path class="cls-1" d="M197.51,42.66a5.64,5.64,0,0,0-2.32,2,5.06,5.06,0,0,0-.92,2.92v53.25h10.47V60.12L243,100.06a4.54,4.54,0,0,0,1.75,1.17,5.62,5.62,0,0,0,1.95.36,5.4,5.4,0,0,0,2.06-.4,5.28,5.28,0,0,0,1.66-1.1,5.18,5.18,0,0,0,1.13-1.68,5,5,0,0,0,.42-2.09V43.06H241.51V83.71L203.27,43.82a5,5,0,0,0-2.7-1.47,5.87,5.87,0,0,0-1-.1,5.27,5.27,0,0,0-2,.41"/></clipPath><clipPath id="clip-path-3"><path class="cls-1" d="M278.06,43.06a15.86,15.86,0,0,0-4.83.69,13.77,13.77,0,0,0-3.76,1.82,13.24,13.24,0,0,0-2.8,2.64,14.84,14.84,0,0,0-1.89,3.12,16.73,16.73,0,0,0-1.07,3.3,15.61,15.61,0,0,0-.34,3.12V86.09a16.25,16.25,0,0,0,.68,4.85,13.69,13.69,0,0,0,1.83,3.79,12.39,12.39,0,0,0,2.64,2.77,15.18,15.18,0,0,0,3.12,1.87,16.32,16.32,0,0,0,3.3,1.07,15.53,15.53,0,0,0,3.12.34h37.76a5.41,5.41,0,0,0,2.1-.4,5.1,5.1,0,0,0,2.77-2.78,5.16,5.16,0,0,0,.41-2.09V71.93a5,5,0,0,0-.4-2,5.29,5.29,0,0,0-4.88-3.25H282.77V77.2h27.86V90.32H278.06a3.86,3.86,0,0,1-4.23-3.43,5.34,5.34,0,0,1,0-.8V57.84a4.42,4.42,0,0,1,1.09-3.23,4.31,4.31,0,0,1,3.14-1.09h42.55V43.06Z"/></clipPath><clipPath id="clip-path-4"><path class="cls-1" d="M346.41,77.2h33.06V66.65H346.41ZM337,43.06a5.33,5.33,0,0,0-2.09.4,5,5,0,0,0-1.67,1.12,5.31,5.31,0,0,0-1.52,3.75V86.09A14.61,14.61,0,0,0,333.24,93a14,14,0,0,0,3.65,4.54,13.75,13.75,0,0,0,4.77,2.51,16.67,16.67,0,0,0,4.75.76h37.76V90.32H346.5a4.33,4.33,0,0,1-3.19-1.09,4.26,4.26,0,0,1-1.08-3.14V53.52h41.95V43.06Z"/></clipPath><clipPath id="clip-path-5"><path class="cls-1" d="M408.77,43.06a16.34,16.34,0,0,0-4.75.78,14.68,14.68,0,0,0-4.77,2.52,13.81,13.81,0,0,0-3.66,4.55,14.72,14.72,0,0,0-1.46,6.84v43h10.46v-43a4.27,4.27,0,0,1,1.09-3.14,4.32,4.32,0,0,1,3.18-1.09h23.58a9.34,9.34,0,0,1,3.62.67A8,8,0,0,1,438.74,56a8.64,8.64,0,0,1,1.76,2.82,13.61,13.61,0,0,1,.83,3.62V67.2a9.22,9.22,0,0,1-.64,3.6,7.68,7.68,0,0,1-1.81,2.72,8.9,8.9,0,0,1-2.8,1.8,12.58,12.58,0,0,1-3.64.82H408.77V86.61h23.67a21.22,21.22,0,0,0,4.13-.44,20.31,20.31,0,0,0,4.35-1.42A19.66,19.66,0,0,0,445,82.26a16.43,16.43,0,0,0,3.48-3.68,18,18,0,0,0,2.4-5,21.28,21.28,0,0,0,.88-6.4V62.46a20.3,20.3,0,0,0-.44-4.12A19.6,19.6,0,0,0,449.94,54a22,22,0,0,0-2.5-4.13,16.79,16.79,0,0,0-3.66-3.48,18,18,0,0,0-5-2.41,20.44,20.44,0,0,0-6.36-.91Z"/></clipPath><clipPath id="clip-path-6"><path class="cls-1" d="M466,43.06a5.31,5.31,0,0,0-2.08.4,4.81,4.81,0,0,0-1.68,1.12,5.37,5.37,0,0,0-1.52,3.75v52.45H471.2V53.52h34.54l.7,0,.73.27.57.69a3.37,3.37,0,0,1,.22,1.34v6.6a9.65,9.65,0,0,1-.65,3.64,7.64,7.64,0,0,1-1.83,2.72,8.79,8.79,0,0,1-2.82,1.79,12,12,0,0,1-3.6.83H475.4V81.9h7.52l21.82,18.88h16.18L499.08,81.9a20.45,20.45,0,0,0,4.12-.44A18.88,18.88,0,0,0,507.54,80a20.25,20.25,0,0,0,4.13-2.51,17,17,0,0,0,3.49-3.69,18,18,0,0,0,2.39-5,21.38,21.38,0,0,0,.89-6.4V55.79a14.36,14.36,0,0,0-.67-4.16,12.35,12.35,0,0,0-2.17-4.12,12.12,12.12,0,0,0-3.93-3.18,12.61,12.61,0,0,0-5.91-1.27Z"/></clipPath><clipPath id="clip-path-7"><path class="cls-1" d="M276.41,9.92a1.65,1.65,0,0,0-.66.13,1.42,1.42,0,0,0-.54.36,1.73,1.73,0,0,0-.49,1.2V28.39h3.35V13.27h11.28l.23.09.18.22a1,1,0,0,1,.07.43v2.11a2.88,2.88,0,0,1-.21,1.16,2.46,2.46,0,0,1-.58.87,3,3,0,0,1-.9.58A4.16,4.16,0,0,1,287,19h-7.57v3.35h2.41l7,6H294l-7-6a7.3,7.3,0,0,0,1.32-.14,6.3,6.3,0,0,0,1.39-.46A7.37,7.37,0,0,0,291,21a5.43,5.43,0,0,0,1.88-2.77,6.81,6.81,0,0,0,.28-2.05V14a4.3,4.3,0,0,0-.21-1.33,4.17,4.17,0,0,0-.69-1.32,4.1,4.1,0,0,0-1.26-1,4,4,0,0,0-1.89-.41Z"/></clipPath><clipPath id="clip-path-8"><path class="cls-1" d="M380.88,9.92a1.7,1.7,0,0,0-.67.13,1.6,1.6,0,0,0-.54.36,1.72,1.72,0,0,0-.48,1.2V28.39h3.35V13.27h11.27l.24.09.18.22a1.21,1.21,0,0,1,.07.43v2.11a3.26,3.26,0,0,1-.21,1.16,2.36,2.36,0,0,1-.59.87,2.84,2.84,0,0,1-.9.58,4.09,4.09,0,0,1-1.15.26h-7.57v3.35h2.41l7,6h5.17l-7-6a7.19,7.19,0,0,0,1.31-.14,6.13,6.13,0,0,0,1.39-.46,7,7,0,0,0,1.32-.8,5.43,5.43,0,0,0,1.88-2.77,6.82,6.82,0,0,0,.29-2.05V14a5,5,0,0,0-.21-1.33,4.19,4.19,0,0,0-.7-1.32,3.88,3.88,0,0,0-1.26-1,4,4,0,0,0-1.89-.41Z"/></clipPath><clipPath id="clip-path-9"><path class="cls-1" d="M545.7,90.14a12.43,12.43,0,0,1-4.32-2.78,12.07,12.07,0,0,1-2.8-4.31,15.16,15.16,0,0,1-1-5.61v-11a15.16,15.16,0,0,1,1-5.61,12.17,12.17,0,0,1,2.8-4.3,12.4,12.4,0,0,1,4.32-2.77,15.18,15.18,0,0,1,5.58-1h14.17a15,15,0,0,1,5.54,1,12.27,12.27,0,0,1,4.3,2.77,12.49,12.49,0,0,1,2.78,4.3,15.15,15.15,0,0,1,1,5.61v11a15.17,15.17,0,0,1-1,5.62,12.21,12.21,0,0,1-2.8,4.31,12.6,12.6,0,0,1-4.34,2.78,15.15,15.15,0,0,1-5.57,1H551.28a15.2,15.2,0,0,1-5.58-1m5.58-47.89a25.36,25.36,0,0,0-9.62,1.8,23.41,23.41,0,0,0-7.65,5,23,23,0,0,0-5,7.65,25.31,25.31,0,0,0-1.83,9.68v11A25,25,0,0,0,529,87.14a23.14,23.14,0,0,0,5,7.64,22.42,22.42,0,0,0,7.65,5,25.16,25.16,0,0,0,9.62,1.79h14.18a25.09,25.09,0,0,0,9.6-1.79,22.64,22.64,0,0,0,7.62-5,23,23,0,0,0,5-7.64,25.37,25.37,0,0,0,1.81-9.71v-11a25.39,25.39,0,0,0-1.81-9.67,22.62,22.62,0,0,0-5-7.65,23.33,23.33,0,0,0-7.62-5,25,25,0,0,0-9.6-1.8Z"/></clipPath><clipPath id="clip-path-10"><path class="cls-1" d="M610.25,53.52h23.07a15.18,15.18,0,0,1,5.58,1,12.53,12.53,0,0,1,4.33,2.77,12.38,12.38,0,0,1,2.8,4.33,15.46,15.46,0,0,1,1,5.59v9.42a15.37,15.37,0,0,1-1,5.62,12.35,12.35,0,0,1-2.8,4.31,12.53,12.53,0,0,1-4.33,2.77,15.17,15.17,0,0,1-5.58,1H610.25Zm-5.18-10.46a5.41,5.41,0,0,0-2.1.4,5,5,0,0,0-1.67,1.12,5.37,5.37,0,0,0-1.52,3.75V95.52a5.31,5.31,0,0,0,.4,2.08,4.84,4.84,0,0,0,1.11,1.67,5,5,0,0,0,1.68,1.11,5.15,5.15,0,0,0,2.09.4h28.26a25.17,25.17,0,0,0,9.62-1.8,22.69,22.69,0,0,0,12.7-12.65,25.16,25.16,0,0,0,1.84-9.7V67.2a25.25,25.25,0,0,0-1.84-9.68,22.6,22.6,0,0,0-12.7-12.65,25,25,0,0,0-9.62-1.81Z"/></clipPath><clipPath id="clip-path-11"><path class="cls-1" d="M214.39,9.86a1.7,1.7,0,0,0-.72.61,1.59,1.59,0,0,0-.29.92V28.13h3.29V15.35l12,12.56a1.35,1.35,0,0,0,.55.36,1.58,1.58,0,0,0,.61.12,1.64,1.64,0,0,0,.65-.13,1.8,1.8,0,0,0,.52-.34,1.91,1.91,0,0,0,.36-.53,1.65,1.65,0,0,0,.13-.66V10h-3.29V22.77l-12-12.55a1.59,1.59,0,0,0-.85-.46l-.32,0a1.64,1.64,0,0,0-.65.13"/></clipPath></defs><g class="cls-2"><g id="Capa_2" data-name="Capa 2"><g id="Capa_1-2" data-name="Capa 1"><g id="Grupo_12" data-name="Grupo 12"><rect class="cls-1" x="171.59" y="43.06" width="10.47" height="57.73"/><g class="cls-3"><g id="Grupo_11" data-name="Grupo 11"><rect id="Rectángulo_14" data-name="Rectángulo 14" class="cls-1" x="171.59" y="43.06" width="10.47" height="57.73"/></g></g></g><g id="Grupo_14" data-name="Grupo 14"><path class="cls-1" d="M197.51,42.66a5.64,5.64,0,0,0-2.32,2,5.06,5.06,0,0,0-.92,2.92v53.25h10.47V60.12L243,100.06a4.54,4.54,0,0,0,1.75,1.17,5.62,5.62,0,0,0,1.95.36,5.4,5.4,0,0,0,2.06-.4,5.28,5.28,0,0,0,1.66-1.1,5.18,5.18,0,0,0,1.13-1.68,5,5,0,0,0,.42-2.09V43.06H241.51V83.71L203.27,43.82a5,5,0,0,0-2.7-1.47,5.87,5.87,0,0,0-1-.1,5.27,5.27,0,0,0-2,.41"/><g class="cls-4"><g id="Grupo_13" data-name="Grupo 13"><rect id="Rectángulo_16" data-name="Rectángulo 16" class="cls-1" x="194.29" y="42.25" width="57.69" height="59.34"/></g></g></g><g id="Grupo_16" data-name="Grupo 16"><path class="cls-1" d="M278.06,43.06a15.86,15.86,0,0,0-4.83.69,13.77,13.77,0,0,0-3.76,1.82,13.24,13.24,0,0,0-2.8,2.64,14.84,14.84,0,0,0-1.89,3.12,16.73,16.73,0,0,0-1.07,3.3,15.61,15.61,0,0,0-.34,3.12V86.09a16.25,16.25,0,0,0,.68,4.85,13.69,13.69,0,0,0,1.83,3.79,12.39,12.39,0,0,0,2.64,2.77,15.18,15.18,0,0,0,3.12,1.87,16.32,16.32,0,0,0,3.3,1.07,15.53,15.53,0,0,0,3.12.34h37.76a5.41,5.41,0,0,0,2.1-.4,5.1,5.1,0,0,0,2.77-2.78,5.16,5.16,0,0,0,.41-2.09V71.93a5,5,0,0,0-.4-2,5.29,5.29,0,0,0-4.88-3.25H282.77V77.2h27.86V90.32H278.06a3.86,3.86,0,0,1-4.23-3.43,5.34,5.34,0,0,1,0-.8V57.84a4.42,4.42,0,0,1,1.09-3.23,4.31,4.31,0,0,1,3.14-1.09h42.55V43.06Z"/><g class="cls-5"><g id="Grupo_15" data-name="Grupo 15"><rect id="Rectángulo_17" data-name="Rectángulo 17" class="cls-1" x="263.37" y="43.06" width="57.73" height="57.72"/></g></g></g><g id="Grupo_18" data-name="Grupo 18"><path class="cls-1" d="M346.41,77.2h33.06V66.65H346.41ZM337,43.06a5.33,5.33,0,0,0-2.09.4,5,5,0,0,0-1.67,1.12,5.31,5.31,0,0,0-1.52,3.75V86.09A14.61,14.61,0,0,0,333.24,93a14,14,0,0,0,3.65,4.54,13.75,13.75,0,0,0,4.77,2.51,16.67,16.67,0,0,0,4.75.76h37.76V90.32H346.5a4.33,4.33,0,0,1-3.19-1.09,4.26,4.26,0,0,1-1.08-3.14V53.52h41.95V43.06Z"/><g class="cls-6"><g id="Grupo_17" data-name="Grupo 17"><rect id="Rectángulo_18" data-name="Rectángulo 18" class="cls-1" x="331.76" y="43.06" width="52.42" height="57.72"/></g></g></g><g id="Grupo_20" data-name="Grupo 20"><path class="cls-1" d="M408.77,43.06a16.34,16.34,0,0,0-4.75.78,14.68,14.68,0,0,0-4.77,2.52,13.81,13.81,0,0,0-3.66,4.55,14.72,14.72,0,0,0-1.46,6.84v43h10.46v-43a4.27,4.27,0,0,1,1.09-3.14,4.32,4.32,0,0,1,3.18-1.09h23.58a9.34,9.34,0,0,1,3.62.67A8,8,0,0,1,438.74,56a8.64,8.64,0,0,1,1.76,2.82,13.61,13.61,0,0,1,.83,3.62V67.2a9.22,9.22,0,0,1-.64,3.6,7.68,7.68,0,0,1-1.81,2.72,8.9,8.9,0,0,1-2.8,1.8,12.58,12.58,0,0,1-3.64.82H408.77V86.61h23.67a21.22,21.22,0,0,0,4.13-.44,20.31,20.31,0,0,0,4.35-1.42A19.66,19.66,0,0,0,445,82.26a16.43,16.43,0,0,0,3.48-3.68,18,18,0,0,0,2.4-5,21.28,21.28,0,0,0,.88-6.4V62.46a20.3,20.3,0,0,0-.44-4.12A19.6,19.6,0,0,0,449.94,54a22,22,0,0,0-2.5-4.13,16.79,16.79,0,0,0-3.66-3.48,18,18,0,0,0-5-2.41,20.44,20.44,0,0,0-6.36-.91Z"/><g class="cls-7"><g id="Grupo_19" data-name="Grupo 19"><rect id="Rectángulo_19" data-name="Rectángulo 19" class="cls-1" x="394.12" y="43.06" width="57.68" height="57.72"/></g></g></g><g id="Grupo_22" data-name="Grupo 22"><path class="cls-1" d="M466,43.06a5.31,5.31,0,0,0-2.08.4,4.81,4.81,0,0,0-1.68,1.12,5.37,5.37,0,0,0-1.52,3.75v52.45H471.2V53.52h34.54l.7,0,.73.27.57.69a3.37,3.37,0,0,1,.22,1.34v6.6a9.65,9.65,0,0,1-.65,3.64,7.64,7.64,0,0,1-1.83,2.72,8.79,8.79,0,0,1-2.82,1.79,12,12,0,0,1-3.6.83H475.4V81.9h7.52l21.82,18.88h16.18L499.08,81.9a20.45,20.45,0,0,0,4.12-.44A18.88,18.88,0,0,0,507.54,80a20.25,20.25,0,0,0,4.13-2.51,17,17,0,0,0,3.49-3.69,18,18,0,0,0,2.39-5,21.38,21.38,0,0,0,.89-6.4V55.79a14.36,14.36,0,0,0-.67-4.16,12.35,12.35,0,0,0-2.17-4.12,12.12,12.12,0,0,0-3.93-3.18,12.61,12.61,0,0,0-5.91-1.27Z"/><g class="cls-8"><g id="Grupo_21" data-name="Grupo 21"><rect id="Rectángulo_20" data-name="Rectángulo 20" class="cls-1" x="460.74" y="43.06" width="60.19" height="57.72"/></g></g></g><g id="Grupo_22-2" data-name="Grupo 22"><path class="cls-1" d="M276.41,9.92a1.65,1.65,0,0,0-.66.13,1.42,1.42,0,0,0-.54.36,1.73,1.73,0,0,0-.49,1.2V28.39h3.35V13.27h11.28l.23.09.18.22a1,1,0,0,1,.07.43v2.11a2.88,2.88,0,0,1-.21,1.16,2.46,2.46,0,0,1-.58.87,3,3,0,0,1-.9.58A4.16,4.16,0,0,1,287,19h-7.57v3.35h2.41l7,6H294l-7-6a7.3,7.3,0,0,0,1.32-.14,6.3,6.3,0,0,0,1.39-.46A7.37,7.37,0,0,0,291,21a5.43,5.43,0,0,0,1.88-2.77,6.81,6.81,0,0,0,.28-2.05V14a4.3,4.3,0,0,0-.21-1.33,4.17,4.17,0,0,0-.69-1.32,4.1,4.1,0,0,0-1.26-1,4,4,0,0,0-1.89-.41Z"/><g class="cls-9"><g id="Grupo_21-2" data-name="Grupo 21"><rect id="Rectángulo_20-2" data-name="Rectángulo 20" class="cls-1" x="274.73" y="9.92" width="19.25" height="18.47"/></g></g></g><g id="Grupo_22-3" data-name="Grupo 22"><path class="cls-1" d="M380.88,9.92a1.7,1.7,0,0,0-.67.13,1.6,1.6,0,0,0-.54.36,1.72,1.72,0,0,0-.48,1.2V28.39h3.35V13.27h11.27l.24.09.18.22a1.21,1.21,0,0,1,.07.43v2.11a3.26,3.26,0,0,1-.21,1.16,2.36,2.36,0,0,1-.59.87,2.84,2.84,0,0,1-.9.58,4.09,4.09,0,0,1-1.15.26h-7.57v3.35h2.41l7,6h5.17l-7-6a7.19,7.19,0,0,0,1.31-.14,6.13,6.13,0,0,0,1.39-.46,7,7,0,0,0,1.32-.8,5.43,5.43,0,0,0,1.88-2.77,6.82,6.82,0,0,0,.29-2.05V14a5,5,0,0,0-.21-1.33,4.19,4.19,0,0,0-.7-1.32,3.88,3.88,0,0,0-1.26-1,4,4,0,0,0-1.89-.41Z"/><g class="cls-10"><g id="Grupo_21-3" data-name="Grupo 21"><rect id="Rectángulo_20-3" data-name="Rectángulo 20" class="cls-1" x="379.19" y="9.92" width="19.25" height="18.47"/></g></g></g><g id="Grupo_24" data-name="Grupo 24"><path class="cls-1" d="M545.7,90.14a12.43,12.43,0,0,1-4.32-2.78,12.07,12.07,0,0,1-2.8-4.31,15.16,15.16,0,0,1-1-5.61v-11a15.16,15.16,0,0,1,1-5.61,12.17,12.17,0,0,1,2.8-4.3,12.4,12.4,0,0,1,4.32-2.77,15.18,15.18,0,0,1,5.58-1h14.17a15,15,0,0,1,5.54,1,12.27,12.27,0,0,1,4.3,2.77,12.49,12.49,0,0,1,2.78,4.3,15.15,15.15,0,0,1,1,5.61v11a15.17,15.17,0,0,1-1,5.62,12.21,12.21,0,0,1-2.8,4.31,12.6,12.6,0,0,1-4.34,2.78,15.15,15.15,0,0,1-5.57,1H551.28a15.2,15.2,0,0,1-5.58-1m5.58-47.89a25.36,25.36,0,0,0-9.62,1.8,23.41,23.41,0,0,0-7.65,5,23,23,0,0,0-5,7.65,25.31,25.31,0,0,0-1.83,9.68v11A25,25,0,0,0,529,87.14a23.14,23.14,0,0,0,5,7.64,22.42,22.42,0,0,0,7.65,5,25.16,25.16,0,0,0,9.62,1.79h14.18a25.09,25.09,0,0,0,9.6-1.79,22.64,22.64,0,0,0,7.62-5,23,23,0,0,0,5-7.64,25.37,25.37,0,0,0,1.81-9.71v-11a25.39,25.39,0,0,0-1.81-9.67,22.62,22.62,0,0,0-5-7.65,23.33,23.33,0,0,0-7.62-5,25,25,0,0,0-9.6-1.8Z"/><g class="cls-11"><g id="Grupo_23" data-name="Grupo 23"><rect id="Rectángulo_21" data-name="Rectángulo 21" class="cls-1" x="527.12" y="42.26" width="62.4" height="59.33"/></g></g></g><g id="Grupo_26" data-name="Grupo 26"><path class="cls-1" d="M610.25,53.52h23.07a15.18,15.18,0,0,1,5.58,1,12.53,12.53,0,0,1,4.33,2.77,12.38,12.38,0,0,1,2.8,4.33,15.46,15.46,0,0,1,1,5.59v9.42a15.37,15.37,0,0,1-1,5.62,12.35,12.35,0,0,1-2.8,4.31,12.53,12.53,0,0,1-4.33,2.77,15.17,15.17,0,0,1-5.58,1H610.25Zm-5.18-10.46a5.41,5.41,0,0,0-2.1.4,5,5,0,0,0-1.67,1.12,5.37,5.37,0,0,0-1.52,3.75V95.52a5.31,5.31,0,0,0,.4,2.08,4.84,4.84,0,0,0,1.11,1.67,5,5,0,0,0,1.68,1.11,5.15,5.15,0,0,0,2.09.4h28.26a25.17,25.17,0,0,0,9.62-1.8,22.69,22.69,0,0,0,12.7-12.65,25.16,25.16,0,0,0,1.84-9.7V67.2a25.25,25.25,0,0,0-1.84-9.68,22.6,22.6,0,0,0-12.7-12.65,25,25,0,0,0-9.62-1.81Z"/><g class="cls-12"><g id="Grupo_25" data-name="Grupo 25"><rect id="Rectángulo_22" data-name="Rectángulo 22" class="cls-1" x="599.78" y="43.06" width="57.69" height="57.72"/></g></g></g><path id="Trazado_3" data-name="Trazado 3" class="cls-13" d="M52.1,37.28V76.65l33.22,19V56Z"/><path id="Trazado_4" data-name="Trazado 4" class="cls-14" d="M118.55,37.28V76.65l-33.23,19V56Z"/><path id="Trazado_5" data-name="Trazado 5" class="cls-15" d="M52.1,76.65l-34.59,20,35.3,20.08,32.75-21.2Z"/><path id="Trazado_6" data-name="Trazado 6" class="cls-15" d="M118.53,76.64l34.84,20-35.3,20.08L85.32,95.53Z"/><path class="cls-1" d="M174.51,14.54v9a1.37,1.37,0,0,0,1.37,1.37h12.06v3h-13a3.35,3.35,0,0,1-3.36-3.35v-11a3.35,3.35,0,0,1,3.36-3.35h13v3H175.88A1.37,1.37,0,0,0,174.51,14.54Z"/><path class="cls-1" d="M321.18,14.54v9a1.37,1.37,0,0,0,1.37,1.37h12.06v3h-13a3.35,3.35,0,0,1-3.36-3.35v-11a3.35,3.35,0,0,1,3.36-3.35h13v3H322.55A1.37,1.37,0,0,0,321.18,14.54Z"/><path class="cls-1" d="M204.05,10.05H196.3a6.08,6.08,0,0,0-6.08,6.08v5.95a6.08,6.08,0,0,0,6.08,6.08h7.75a6.09,6.09,0,0,0,6.09-6.08V16.13A6.09,6.09,0,0,0,204.05,10.05ZM207,21.2a4,4,0,0,1-4,4.05h-5.5a4,4,0,0,1-4-4.05V17a4,4,0,0,1,4-4h5.5a4,4,0,0,1,4,4Z"/><path class="cls-1" d="M370.16,10.05h-7.75a6.08,6.08,0,0,0-6.08,6.08v5.95a6.08,6.08,0,0,0,6.08,6.08h7.75a6.09,6.09,0,0,0,6.09-6.08V16.13A6.09,6.09,0,0,0,370.16,10.05Zm2.92,11.15a4,4,0,0,1-4,4.05h-5.5a4,4,0,0,1-4-4.05V17a4,4,0,0,1,4-4H369a4,4,0,0,1,4,4Z"/><g id="Grupo_14-2" data-name="Grupo 14"><path class="cls-1" d="M214.39,9.86a1.7,1.7,0,0,0-.72.61,1.59,1.59,0,0,0-.29.92V28.13h3.29V15.35l12,12.56a1.35,1.35,0,0,0,.55.36,1.58,1.58,0,0,0,.61.12,1.64,1.64,0,0,0,.65-.13,1.8,1.8,0,0,0,.52-.34,1.91,1.91,0,0,0,.36-.53,1.65,1.65,0,0,0,.13-.66V10h-3.29V22.77l-12-12.55a1.59,1.59,0,0,0-.85-.46l-.32,0a1.64,1.64,0,0,0-.65.13"/><g class="cls-16"><g id="Grupo_13-2" data-name="Grupo 13"><rect id="Rectángulo_16-2" data-name="Rectángulo 16" class="cls-1" x="213.38" y="9.73" width="18.14" height="18.66"/></g></g></g><path class="cls-1" d="M253.17,22.9v.44a5.24,5.24,0,0,1-5.24,5.23H235V25.34h12.73a2,2,0,0,0,2-2v-.51a2,2,0,0,0-2-2H240a5.26,5.26,0,0,1-5.24-5.24v-.44A5.24,5.24,0,0,1,240,9.92h11.6v2.94H240.25a2,2,0,0,0-2,2v.8a2,2,0,0,0,2,2h7.68a5.26,5.26,0,0,1,5.24,5.24Z"/><polygon class="cls-1" points="354.42 9.89 336.53 9.89 336.53 13.25 343.53 13.25 343.53 28.39 347.06 28.39 347.06 13.25 354.42 13.25 354.42 9.89"/><path class="cls-1" d="M314.45,9.88V26.62a1.52,1.52,0,0,1-1.52,1.53h-8.24A8.66,8.66,0,0,1,296,19.49V9.88h3.39v9.63A5.61,5.61,0,0,0,305,25.13h6.21V9.88Z"/><polygon class="cls-1" points="272.34 9.89 254.45 9.89 254.45 13.25 261.45 13.25 261.45 28.39 264.97 28.39 264.97 13.25 272.34 13.25 272.34 9.89"/><path class="cls-1" d="M417.27,9.88H409a8.66,8.66,0,0,0-8.66,8.66v9.61h3.39V23.78h11.83v4.37h3.2V11.41A1.52,1.52,0,0,0,417.27,9.88ZM403.76,20.75V18.52a5.61,5.61,0,0,1,5.62-5.62h6.21v7.85Z"/><rect class="cls-17" width="674.97" height="128.92"/></g></g></g></svg>