<svg xmlns="http://www.w3.org/2000/svg" xmlns:xlink="http://www.w3.org/1999/xlink" width="208.392" height="41.17" viewBox="0 0 208.392 41.17">
  <defs>
    <clipPath id="clip-path">
      <rect id="Rectángulo_15" data-name="Rectángulo 15" width="4.489" height="24.759" fill="#1722bb"/>
    </clipPath>
    <clipPath id="clip-path-2">
      <path id="Trazado_45" data-name="Trazado 45" d="M50.671,12.876a2.4,2.4,0,0,0-.994.835,2.147,2.147,0,0,0-.39,1.251V37.8h4.491V20.365l16.4,17.128a1.927,1.927,0,0,0,.752.5,2.366,2.366,0,0,0,.835.154,2.3,2.3,0,0,0,.882-.171,2.185,2.185,0,0,0,.713-.473,2.281,2.281,0,0,0,.486-.72,2.214,2.214,0,0,0,.18-.9V13.047H69.541V30.484l-16.4-17.109a2.137,2.137,0,0,0-1.156-.632,2.363,2.363,0,0,0-.439-.043,2.266,2.266,0,0,0-.874.176" transform="translate(-49.288 -12.7)" fill="#1722bb"/>
    </clipPath>
    <clipPath id="clip-path-3">
      <path id="Trazado_46" data-name="Trazado 46" d="M69.426,12.862a6.8,6.8,0,0,0-2.073.293,5.855,5.855,0,0,0-1.613.786,5.552,5.552,0,0,0-1.2,1.131,6.334,6.334,0,0,0-.812,1.336,7.046,7.046,0,0,0-.456,1.418,6.6,6.6,0,0,0-.148,1.336V31.316a6.884,6.884,0,0,0,.293,2.082,5.925,5.925,0,0,0,.786,1.623,5.363,5.363,0,0,0,1.133,1.191,6.512,6.512,0,0,0,1.336.8,6.9,6.9,0,0,0,1.416.458,6.631,6.631,0,0,0,1.338.146H85.62a2.3,2.3,0,0,0,.9-.171,2.15,2.15,0,0,0,.715-.478,2.113,2.113,0,0,0,.475-.715,2.292,2.292,0,0,0,.173-.9V25.24a2.2,2.2,0,0,0-.173-.872,2.246,2.246,0,0,0-.475-.715,2.229,2.229,0,0,0-1.613-.675H71.445V27.5H83.393V33.13H69.426a1.65,1.65,0,0,1-1.814-1.814V19.2a1.874,1.874,0,0,1,.467-1.383,1.834,1.834,0,0,1,1.347-.467H87.674V12.862Z" transform="translate(-63.123 -12.862)" fill="#1722bb"/>
    </clipPath>
    <clipPath id="clip-path-4">
      <path id="Trazado_47" data-name="Trazado 47" d="M83.1,27.5H97.281V22.979H83.1Zm-4.022-14.64a2.3,2.3,0,0,0-.9.173,2.1,2.1,0,0,0-.715.482,2.27,2.27,0,0,0-.649,1.606V31.316a6.258,6.258,0,0,0,.632,2.947,6.049,6.049,0,0,0,1.57,1.949,5.89,5.89,0,0,0,2.047,1.077,7.135,7.135,0,0,0,2.034.33H99.3V33.13H83.14a1.851,1.851,0,0,1-1.366-.467,1.82,1.82,0,0,1-.463-1.347V17.349H99.3V12.862Z" transform="translate(-76.82 -12.862)" fill="#1722bb"/>
    </clipPath>
    <clipPath id="clip-path-5">
      <path id="Trazado_48" data-name="Trazado 48" d="M95.594,12.862a7.008,7.008,0,0,0-2.039.334,6.249,6.249,0,0,0-2.045,1.079,5.915,5.915,0,0,0-1.572,1.953,6.279,6.279,0,0,0-.63,2.934V37.619H93.8V19.163a1.829,1.829,0,0,1,.467-1.347,1.857,1.857,0,0,1,1.364-.467h10.117a3.937,3.937,0,0,1,1.553.287,3.427,3.427,0,0,1,1.15.784,3.664,3.664,0,0,1,.752,1.21,5.907,5.907,0,0,1,.36,1.553v2.037a4.038,4.038,0,0,1-.276,1.546,3.308,3.308,0,0,1-.775,1.165,3.748,3.748,0,0,1-1.2.771,5.381,5.381,0,0,1-1.561.353H95.594v4.489h10.151a8.982,8.982,0,0,0,1.769-.191,8.656,8.656,0,0,0,1.865-.606,8.532,8.532,0,0,0,1.771-1.069A7.155,7.155,0,0,0,112.64,28.1a7.71,7.71,0,0,0,1.03-2.129,9.245,9.245,0,0,0,.377-2.748V21.182a8.989,8.989,0,0,0-.188-1.769,8.6,8.6,0,0,0-.612-1.865,9.231,9.231,0,0,0-1.071-1.769,7.013,7.013,0,0,0-1.572-1.493,7.731,7.731,0,0,0-2.131-1.034,8.827,8.827,0,0,0-2.728-.39Z" transform="translate(-89.308 -12.862)" fill="#1722bb"/>
    </clipPath>
    <clipPath id="clip-path-6">
      <path id="Trazado_49" data-name="Trazado 49" d="M104.911,12.862a2.285,2.285,0,0,0-.9.173,2.086,2.086,0,0,0-.717.482,2.295,2.295,0,0,0-.649,1.606v22.5h4.491V17.349h14.813l.3.017.313.114.242.3a1.39,1.39,0,0,1,.094.576v2.831a4.13,4.13,0,0,1-.276,1.563,3.309,3.309,0,0,1-.784,1.165,3.852,3.852,0,0,1-1.21.769,5.208,5.208,0,0,1-1.544.353H108.936v4.489h3.227l9.359,8.1h6.941l-9.374-8.1a8.973,8.973,0,0,0,1.769-.188,8.441,8.441,0,0,0,1.863-.615,8.829,8.829,0,0,0,1.769-1.077,7.316,7.316,0,0,0,1.5-1.58,7.713,7.713,0,0,0,1.024-2.131,9.113,9.113,0,0,0,.381-2.748V18.319a6.2,6.2,0,0,0-.285-1.782,5.332,5.332,0,0,0-.932-1.769,5.194,5.194,0,0,0-1.685-1.362,5.38,5.38,0,0,0-2.536-.544Z" transform="translate(-102.65 -12.862)" fill="#1722bb"/>
    </clipPath>
    <clipPath id="clip-path-7">
      <path id="Trazado_50" data-name="Trazado 50" d="M123.912,33.237a5.372,5.372,0,0,1-1.855-1.191,5.25,5.25,0,0,1-1.2-1.848,6.532,6.532,0,0,1-.424-2.409V23.058a6.548,6.548,0,0,1,.424-2.409,5.3,5.3,0,0,1,1.2-1.846,5.367,5.367,0,0,1,1.855-1.189,6.488,6.488,0,0,1,2.392-.426h6.078a6.433,6.433,0,0,1,2.373.426A5.272,5.272,0,0,1,136.6,18.8a5.341,5.341,0,0,1,1.193,1.846,6.548,6.548,0,0,1,.422,2.409v4.731a6.532,6.532,0,0,1-.422,2.409,5.246,5.246,0,0,1-1.2,1.848,5.39,5.39,0,0,1-1.859,1.191,6.46,6.46,0,0,1-2.39.422H126.3a6.488,6.488,0,0,1-2.392-.422M126.3,12.7a10.83,10.83,0,0,0-4.127.773,9.992,9.992,0,0,0-3.281,2.152,9.8,9.8,0,0,0-2.165,3.281,10.779,10.779,0,0,0-.786,4.15v4.731a10.774,10.774,0,0,0,.786,4.163A9.947,9.947,0,0,0,118.9,35.23a9.724,9.724,0,0,0,3.281,2.15,10.91,10.91,0,0,0,4.127.767h6.078a10.85,10.85,0,0,0,4.118-.767,9.741,9.741,0,0,0,3.27-2.15,9.865,9.865,0,0,0,2.159-3.279,10.891,10.891,0,0,0,.777-4.163V23.058a10.9,10.9,0,0,0-.777-4.15,9.725,9.725,0,0,0-2.159-3.281,10.011,10.011,0,0,0-3.27-2.152,10.771,10.771,0,0,0-4.118-.773Z" transform="translate(-115.945 -12.701)" fill="#1722bb"/>
    </clipPath>
    <clipPath id="clip-path-8">
      <path id="Trazado_51" data-name="Trazado 51" d="M134.985,17.349h9.894a6.476,6.476,0,0,1,2.39.426,5.388,5.388,0,0,1,1.857,1.189,5.276,5.276,0,0,1,1.2,1.859,6.58,6.58,0,0,1,.422,2.4V27.26a6.576,6.576,0,0,1-.422,2.409,5.27,5.27,0,0,1-1.2,1.848,5.393,5.393,0,0,1-1.857,1.191,6.52,6.52,0,0,1-2.39.422h-9.894Zm-2.225-4.487a2.287,2.287,0,0,0-.9.173,2.107,2.107,0,0,0-.717.482,2.295,2.295,0,0,0-.649,1.606V35.359a2.292,2.292,0,0,0,.173.9,2.113,2.113,0,0,0,.475.715,2.159,2.159,0,0,0,.717.478,2.286,2.286,0,0,0,.9.171h12.119a10.783,10.783,0,0,0,4.127-.775,9.726,9.726,0,0,0,5.446-5.422,10.8,10.8,0,0,0,.788-4.161V23.219a10.82,10.82,0,0,0-.788-4.15,9.695,9.695,0,0,0-5.446-5.429,10.743,10.743,0,0,0-4.127-.777Z" transform="translate(-130.496 -12.862)" fill="#1722bb"/>
    </clipPath>
    <clipPath id="clip-path-9">
      <path id="Trazado_52" data-name="Trazado 52" d="M45.044,37.114h2.088V27.378H45.044Zm9.736-9.736V33.5l-4.069-6.118H48.522v9.736h2.086V30.993l4.067,6.121h2.191V27.378Zm6.258,0a2.457,2.457,0,0,0-2.78,2.782v4.172a2.457,2.457,0,0,0,2.78,2.782H66.6V31.2H61.733l.694,2.086h2.086v1.737H61.037a.613.613,0,0,1-.7-.694V30.16a.615.615,0,0,1,.7-.7h5.217l.694-2.086Zm6.954,0v9.736h7.3l.7-2.088H70.077V33.289h4.172l.7-2.086H70.077V29.464h5.562V27.378Zm15.3,0V33.5l-4.069-6.118H77.031v9.736h2.084V30.993l4.069,6.121h2.191V27.378Zm3.476,9.736h2.088V27.378H86.764Zm3.476-9.736v9.736h7.3l.7-2.088H92.328V33.289H96.5l.7-2.086H92.328V29.464h5.56V27.378Zm11.125,2.086h3.478a.615.615,0,0,1,.7.7v.349a.614.614,0,0,1-.7.694h-3.478Zm-2.086-2.086v9.736h2.086V33.289h1.786l2.212,3.825h2.407l-2.24-3.872q2.091-.324,2.092-2.733V30.16a2.458,2.458,0,0,0-2.78-2.782Zm9.733,9.736H111.1V27.378h-2.088Zm7.65-6.307,1.086,2.829h-2.169Zm-.925-3.429-3.726,9.736h2.234l.533-1.39h3.771l.533,1.39h2.232l-3.726-9.736Zm16.173,0-1.981,2.983-1.981-2.983h-2.5l3.442,5.18v4.555h2.086V32.558l3.442-5.18Zm9.9,0a2.458,2.458,0,0,0-2.782,2.782v4.172a2.457,2.457,0,0,0,2.782,2.782h5.56V31.2H142.5l.694,2.086h2.086v1.737h-3.476a.613.613,0,0,1-.7-.694V30.16a.615.615,0,0,1,.7-.7h5.213l.7-2.086Zm6.952,0v9.736h7.3l.7-2.088h-5.911V33.289h4.172l.7-2.086h-4.868V29.464h5.564V27.378Zm11.821,0A2.459,2.459,0,0,0,157.8,30.16q0,2.014,3.131,2.814c2.086.538,3.127.987,3.127,1.358a.612.612,0,0,1-.694.694H160.58a.613.613,0,0,1-.7-.694v-.349l-2.086-.694v1.043a2.458,2.458,0,0,0,2.782,2.782h2.782a2.457,2.457,0,0,0,2.78-2.782q0-2.017-3.127-2.816t-3.131-1.356a.615.615,0,0,1,.7-.7h2.782a.615.615,0,0,1,.694.7v.349l2.086.694V30.16a2.458,2.458,0,0,0-2.78-2.782Zm6.258,0v2.086h2.782v7.65h2.086v-7.65h2.78V27.378Zm9.04,9.736h2.086V27.378h-2.086Zm5.562-2.782V30.16a.615.615,0,0,1,.694-.7h2.782a.615.615,0,0,1,.7.7v4.172a.613.613,0,0,1-.7.694h-2.782a.612.612,0,0,1-.694-.694m.694-6.954a2.457,2.457,0,0,0-2.778,2.782v4.172a2.456,2.456,0,0,0,2.778,2.782h2.782a2.457,2.457,0,0,0,2.782-2.782V30.16a2.458,2.458,0,0,0-2.782-2.782Zm13.214,0V33.5l-4.069-6.118h-2.189v9.736h2.086V30.993l4.067,6.121h2.191V27.378Z" transform="translate(-45.044 -27.378)" fill="none"/>
    </clipPath>
    <linearGradient id="linear-gradient" x1="-0.633" y1="47.023" x2="-0.619" y2="47.023" gradientUnits="objectBoundingBox">
      <stop offset="0" stop-color="#081e2b"/>
      <stop offset="0.373" stop-color="#081e2b"/>
      <stop offset="0.552" stop-color="#0f2a36"/>
      <stop offset="1" stop-color="#214851"/>
    </linearGradient>
  </defs>
  <g id="Grupo_37" data-name="Grupo 37" transform="translate(-199.144 -18)">
    <g id="Grupo_12" data-name="Grupo 12" transform="translate(199.144 18.346)">
      <g id="Grupo_11" data-name="Grupo 11" clip-path="url(#clip-path)">
        <rect id="Rectángulo_14" data-name="Rectángulo 14" width="4.489" height="24.759" transform="translate(0 0)" fill="#1722bb"/>
      </g>
    </g>
    <g id="Grupo_14" data-name="Grupo 14" transform="translate(208.88 18)">
      <g id="Grupo_13" data-name="Grupo 13" clip-path="url(#clip-path-2)">
        <rect id="Rectángulo_16" data-name="Rectángulo 16" width="24.742" height="25.448" transform="translate(0 0.001)" fill="#1722bb"/>
      </g>
    </g>
    <g id="Grupo_16" data-name="Grupo 16" transform="translate(238.509 18.347)">
      <g id="Grupo_15" data-name="Grupo 15" clip-path="url(#clip-path-3)">
        <rect id="Rectángulo_17" data-name="Rectángulo 17" width="24.759" height="24.757" transform="translate(0 0.001)" fill="#1722bb"/>
      </g>
    </g>
    <g id="Grupo_18" data-name="Grupo 18" transform="translate(267.842 18.347)">
      <g id="Grupo_17" data-name="Grupo 17" clip-path="url(#clip-path-4)">
        <rect id="Rectángulo_18" data-name="Rectángulo 18" width="22.48" height="24.757" transform="translate(0 0.001)" fill="#1722bb"/>
      </g>
    </g>
    <g id="Grupo_20" data-name="Grupo 20" transform="translate(294.586 18.347)">
      <g id="Grupo_19" data-name="Grupo 19" clip-path="url(#clip-path-5)">
        <rect id="Rectángulo_19" data-name="Rectángulo 19" width="24.739" height="24.757" transform="translate(0 0.001)" fill="#1722bb"/>
      </g>
    </g>
    <g id="Grupo_22" data-name="Grupo 22" transform="translate(323.159 18.347)">
      <g id="Grupo_21" data-name="Grupo 21" clip-path="url(#clip-path-6)">
        <rect id="Rectángulo_20" data-name="Rectángulo 20" width="25.812" height="24.757" transform="translate(0 0.001)" fill="#1722bb"/>
      </g>
    </g>
    <g id="Grupo_24" data-name="Grupo 24" transform="translate(351.631 18.002)">
      <g id="Grupo_23" data-name="Grupo 23" clip-path="url(#clip-path-7)">
        <rect id="Rectángulo_21" data-name="Rectángulo 21" width="26.761" height="25.446" transform="translate(0 0.001)" fill="#1722bb"/>
      </g>
    </g>
    <g id="Grupo_26" data-name="Grupo 26" transform="translate(382.793 18.347)">
      <g id="Grupo_25" data-name="Grupo 25" clip-path="url(#clip-path-8)">
        <rect id="Rectángulo_22" data-name="Rectángulo 22" width="24.744" height="24.757" transform="translate(0 0.001)" fill="#1722bb"/>
      </g>
    </g>
    <g id="Grupo_28" data-name="Grupo 28" transform="translate(199.791 49.434)">
      <g id="Grupo_27" data-name="Grupo 27" clip-path="url(#clip-path-9)">
        <rect id="Rectángulo_23" data-name="Rectángulo 23" width="152.388" height="9.736" transform="translate(0 0.001)" fill="url(#linear-gradient)"/>
      </g>
    </g>
  </g>
</svg>
