<svg xmlns="http://www.w3.org/2000/svg" xmlns:xlink="http://www.w3.org/1999/xlink" width="318.767" height="62.975" viewBox="0 0 318.767 62.975">
  <defs>
    <clipPath id="clip-path">
      <rect id="Rectángulo_15" data-name="Rectángulo 15" width="6.866" height="37.872" fill="#fff"/>
    </clipPath>
    <clipPath id="clip-path-2">
      <path id="Trazado_45" data-name="Trazado 45" d="M51.4,12.969a3.675,3.675,0,0,0-1.52,1.278,3.285,3.285,0,0,0-.6,1.913V51.1h6.869V24.424l25.09,26.2a2.948,2.948,0,0,0,1.15.767,3.619,3.619,0,0,0,1.278.236,3.526,3.526,0,0,0,1.35-.262,3.342,3.342,0,0,0,1.091-.724,3.49,3.49,0,0,0,.744-1.1,3.386,3.386,0,0,0,.275-1.369V13.231H80.268V39.9L55.181,13.732a3.269,3.269,0,0,0-1.769-.966,3.615,3.615,0,0,0-.672-.066,3.466,3.466,0,0,0-1.337.269" transform="translate(-49.288 -12.7)" fill="#fff"/>
    </clipPath>
    <clipPath id="clip-path-3">
      <path id="Trazado_46" data-name="Trazado 46" d="M72.764,12.862a10.4,10.4,0,0,0-3.171.449,8.956,8.956,0,0,0-2.467,1.2,8.493,8.493,0,0,0-1.838,1.73,9.689,9.689,0,0,0-1.242,2.044,10.778,10.778,0,0,0-.7,2.169,10.1,10.1,0,0,0-.226,2.044V41.09a10.53,10.53,0,0,0,.449,3.184,9.063,9.063,0,0,0,1.2,2.483,8.2,8.2,0,0,0,1.733,1.821,9.961,9.961,0,0,0,2.044,1.228,10.56,10.56,0,0,0,2.165.7,10.143,10.143,0,0,0,2.047.223H97.536a3.521,3.521,0,0,0,1.373-.262A3.288,3.288,0,0,0,100,49.738a3.231,3.231,0,0,0,.727-1.094A3.506,3.506,0,0,0,101,47.275V31.8a3.364,3.364,0,0,0-.265-1.333A3.436,3.436,0,0,0,100,29.369a3.41,3.41,0,0,0-2.467-1.032H75.853v6.919H94.129v8.609H72.764a2.525,2.525,0,0,1-2.775-2.775V22.555a2.867,2.867,0,0,1,.714-2.116,2.806,2.806,0,0,1,2.061-.714h27.914V12.862Z" transform="translate(-63.123 -12.862)" fill="#fff"/>
    </clipPath>
    <clipPath id="clip-path-4">
      <path id="Trazado_47" data-name="Trazado 47" d="M86.431,35.256h21.686V28.337H86.431ZM80.279,12.862a3.523,3.523,0,0,0-1.373.265,3.209,3.209,0,0,0-1.094.737,3.473,3.473,0,0,0-.993,2.457V41.09a9.573,9.573,0,0,0,.966,4.508,9.253,9.253,0,0,0,2.4,2.981,9.01,9.01,0,0,0,3.132,1.648,10.914,10.914,0,0,0,3.112.5h24.775V43.865H86.487a2.832,2.832,0,0,1-2.09-.714,2.785,2.785,0,0,1-.708-2.061V19.725h27.517V12.862Z" transform="translate(-76.82 -12.862)" fill="#fff"/>
    </clipPath>
    <clipPath id="clip-path-5">
      <path id="Trazado_48" data-name="Trazado 48" d="M98.923,12.862a10.719,10.719,0,0,0-3.119.511,9.559,9.559,0,0,0-3.128,1.651,9.048,9.048,0,0,0-2.4,2.988,9.6,9.6,0,0,0-.963,4.488V50.731h6.866V22.5a2.8,2.8,0,0,1,.714-2.061,2.84,2.84,0,0,1,2.087-.714H114.45a6.023,6.023,0,0,1,2.375.439,5.241,5.241,0,0,1,1.759,1.2,5.605,5.605,0,0,1,1.15,1.851,9.036,9.036,0,0,1,.55,2.375V28.7a6.177,6.177,0,0,1-.423,2.365,5.06,5.06,0,0,1-1.186,1.782,5.733,5.733,0,0,1-1.838,1.179,8.232,8.232,0,0,1-2.388.541H98.923v6.866H114.45a13.74,13.74,0,0,0,2.706-.292,13.241,13.241,0,0,0,2.853-.927,13.051,13.051,0,0,0,2.709-1.635A10.943,10.943,0,0,0,125,36.163a11.792,11.792,0,0,0,1.576-3.256,14.141,14.141,0,0,0,.577-4.2V25.589a13.749,13.749,0,0,0-.288-2.706,13.158,13.158,0,0,0-.937-2.853,14.122,14.122,0,0,0-1.638-2.706,10.727,10.727,0,0,0-2.4-2.283,11.825,11.825,0,0,0-3.259-1.582,13.5,13.5,0,0,0-4.173-.6Z" transform="translate(-89.308 -12.862)" fill="#fff"/>
    </clipPath>
    <clipPath id="clip-path-6">
      <path id="Trazado_49" data-name="Trazado 49" d="M106.109,12.862a3.5,3.5,0,0,0-1.369.265,3.191,3.191,0,0,0-1.1.737,3.51,3.51,0,0,0-.993,2.457v34.41h6.869V19.725h22.659l.459.026.478.174.37.452a2.126,2.126,0,0,1,.144.881v4.331a6.318,6.318,0,0,1-.423,2.391,5.062,5.062,0,0,1-1.2,1.782,5.892,5.892,0,0,1-1.851,1.176,7.967,7.967,0,0,1-2.362.541H112.265v6.866H117.2l14.315,12.386h10.617L127.8,38.345a13.725,13.725,0,0,0,2.706-.288,12.913,12.913,0,0,0,2.85-.94,13.506,13.506,0,0,0,2.706-1.648,11.191,11.191,0,0,0,2.29-2.418,11.8,11.8,0,0,0,1.566-3.259,13.939,13.939,0,0,0,.583-4.2v-4.38a9.48,9.48,0,0,0-.436-2.726,8.157,8.157,0,0,0-1.425-2.706,7.945,7.945,0,0,0-2.578-2.083,8.23,8.23,0,0,0-3.879-.832Z" transform="translate(-102.65 -12.862)" fill="#fff"/>
    </clipPath>
    <clipPath id="clip-path-7">
      <path id="Trazado_50" data-name="Trazado 50" d="M128.131,44.113a8.218,8.218,0,0,1-2.837-1.821,8.031,8.031,0,0,1-1.838-2.827,9.991,9.991,0,0,1-.649-3.685V28.543a10.016,10.016,0,0,1,.649-3.685,8.107,8.107,0,0,1,1.838-2.824,8.21,8.21,0,0,1,2.837-1.818,9.924,9.924,0,0,1,3.659-.652h9.3a9.84,9.84,0,0,1,3.63.652,8.064,8.064,0,0,1,2.824,1.818,8.171,8.171,0,0,1,1.825,2.824,10.016,10.016,0,0,1,.645,3.685v7.236a9.992,9.992,0,0,1-.645,3.685,8.024,8.024,0,0,1-1.835,2.827,8.246,8.246,0,0,1-2.843,1.821,9.882,9.882,0,0,1-3.656.645H131.79a9.924,9.924,0,0,1-3.659-.645M131.79,12.7a16.566,16.566,0,0,0-6.313,1.183,15.283,15.283,0,0,0-5.019,3.292,15,15,0,0,0-3.312,5.019,16.488,16.488,0,0,0-1.2,6.349v7.236a16.481,16.481,0,0,0,1.2,6.368,15.216,15.216,0,0,0,3.312,5.015,14.873,14.873,0,0,0,5.019,3.289,16.688,16.688,0,0,0,6.313,1.173h9.3a16.6,16.6,0,0,0,6.3-1.173,14.9,14.9,0,0,0,5-3.289,15.09,15.09,0,0,0,3.3-5.015,16.66,16.66,0,0,0,1.189-6.368V28.543a16.667,16.667,0,0,0-1.189-6.349,14.875,14.875,0,0,0-3.3-5.019,15.314,15.314,0,0,0-5-3.292,16.475,16.475,0,0,0-6.3-1.183Z" transform="translate(-115.945 -12.701)" fill="#fff"/>
    </clipPath>
    <clipPath id="clip-path-8">
      <path id="Trazado_51" data-name="Trazado 51" d="M137.362,19.725H152.5a9.906,9.906,0,0,1,3.656.652,8.242,8.242,0,0,1,2.84,1.818,8.07,8.07,0,0,1,1.838,2.843,10.064,10.064,0,0,1,.645,3.666v6.182a10.059,10.059,0,0,1-.645,3.685,8.061,8.061,0,0,1-1.838,2.827,8.249,8.249,0,0,1-2.84,1.821,9.973,9.973,0,0,1-3.656.645H137.362Zm-3.4-6.863a3.5,3.5,0,0,0-1.373.265,3.223,3.223,0,0,0-1.1.737,3.511,3.511,0,0,0-.993,2.457V47.275a3.505,3.505,0,0,0,.265,1.369,3.232,3.232,0,0,0,.727,1.094,3.3,3.3,0,0,0,1.1.731,3.5,3.5,0,0,0,1.373.262H152.5a16.493,16.493,0,0,0,6.313-1.186,14.878,14.878,0,0,0,8.331-8.294,16.515,16.515,0,0,0,1.205-6.365V28.7a16.551,16.551,0,0,0-1.205-6.349,14.829,14.829,0,0,0-8.331-8.3,16.433,16.433,0,0,0-6.313-1.189Z" transform="translate(-130.496 -12.862)" fill="#fff"/>
    </clipPath>
    <clipPath id="clip-path-9">
      <path id="Trazado_52" data-name="Trazado 52" d="M45.044,42.27h3.194V27.378H45.044ZM59.936,27.378v9.359l-6.224-9.359H50.364V42.27h3.191V32.908l6.221,9.362h3.351V27.378Zm9.572,0q-4.255,0-4.252,4.255v6.381q0,4.26,4.252,4.255h8.511V33.229H70.573l1.061,3.191h3.191v2.657H69.508a.938.938,0,0,1-1.065-1.061V31.633a.941.941,0,0,1,1.065-1.065h7.98l1.061-3.191Zm10.637,0V42.27H91.312l1.065-3.194H83.335V36.419h6.381l1.065-3.191H83.335v-2.66h8.507V27.378Zm23.4,0v9.359L97.32,27.378H93.972V42.27H97.16V32.908l6.224,9.362h3.351V27.378Zm5.317,14.892h3.194V27.378h-3.194Zm5.317-14.892V42.27h11.167l1.065-3.194h-9.038V36.419h6.378l1.065-3.191h-7.443v-2.66h8.5V27.378ZM131.2,30.569h5.32a.941.941,0,0,1,1.065,1.065v.534a.939.939,0,0,1-1.065,1.061H131.2ZM128,27.378V42.27H131.2V36.419h2.732l3.384,5.851h3.682l-3.426-5.923q3.2-.5,3.2-4.18v-.534q0-4.255-4.252-4.255ZM142.894,42.27h3.194V27.378h-3.194Zm11.7-9.647,1.661,4.327h-3.318Zm-1.415-5.245-5.7,14.892H150.9l.816-2.126h5.769l.816,2.126h3.413l-5.7-14.892Zm24.739,0-3.03,4.563-3.03-4.563h-3.829l5.264,7.924V42.27h3.191V35.3l5.264-7.924Zm15.138,0q-4.26,0-4.255,4.255v6.381q0,4.26,4.255,4.255h8.5V33.229h-7.439l1.061,3.191h3.191v2.657h-5.317a.938.938,0,0,1-1.065-1.061V31.633a.941.941,0,0,1,1.065-1.065h7.973l1.065-3.191Zm10.633,0V42.27h11.167l1.065-3.194h-9.041V36.419h6.381l1.065-3.191h-7.446v-2.66h8.511V27.378Zm18.083,0q-4.255,0-4.255,4.255,0,3.081,4.789,4.3c3.191.822,4.783,1.51,4.783,2.077a.937.937,0,0,1-1.061,1.061h-4.255a.938.938,0,0,1-1.065-1.061v-.534l-3.191-1.061v1.6q0,4.26,4.255,4.255h4.255q4.25,0,4.252-4.255,0-3.086-4.783-4.308t-4.789-2.074a.941.941,0,0,1,1.065-1.065h4.255a.94.94,0,0,1,1.061,1.065v.534l3.191,1.061v-1.6q0-4.255-4.252-4.255Zm9.572,0v3.191H235.6v11.7h3.191v-11.7h4.252V27.378ZM245.172,42.27h3.191V27.378h-3.191Zm8.507-4.255V31.633a.94.94,0,0,1,1.061-1.065H259a.941.941,0,0,1,1.065,1.065v6.381A.938.938,0,0,1,259,39.076h-4.255a.937.937,0,0,1-1.061-1.061m1.061-10.637q-4.25,0-4.249,4.255v6.381q0,4.26,4.249,4.255H259q4.26,0,4.255-4.255V31.633q0-4.255-4.255-4.255Zm20.212,0v9.359l-6.224-9.359h-3.348V42.27h3.191V32.908l6.221,9.362h3.351V27.378Z" transform="translate(-45.044 -27.378)" fill="#fff"/>
    </clipPath>
  </defs>
  <g id="Grupo_38" data-name="Grupo 38" transform="translate(-199.144 -18)">
    <g id="Grupo_12" data-name="Grupo 12" transform="translate(199.144 18.529)">
      <g id="Grupo_11" data-name="Grupo 11" clip-path="url(#clip-path)">
        <rect id="Rectángulo_14" data-name="Rectángulo 14" width="6.866" height="37.872" transform="translate(0 0)" fill="#fff"/>
      </g>
    </g>
    <g id="Grupo_14" data-name="Grupo 14" transform="translate(214.037 18)">
      <g id="Grupo_13" data-name="Grupo 13" clip-path="url(#clip-path-2)">
        <rect id="Rectángulo_16" data-name="Rectángulo 16" width="37.846" height="38.927" transform="translate(0 0.001)" fill="#fff"/>
      </g>
    </g>
    <g id="Grupo_16" data-name="Grupo 16" transform="translate(259.358 18.531)">
      <g id="Grupo_15" data-name="Grupo 15" clip-path="url(#clip-path-3)">
        <rect id="Rectángulo_17" data-name="Rectángulo 17" width="37.872" height="37.869" transform="translate(0 0.001)" fill="#fff"/>
      </g>
    </g>
    <g id="Grupo_18" data-name="Grupo 18" transform="translate(304.227 18.531)">
      <g id="Grupo_17" data-name="Grupo 17" clip-path="url(#clip-path-4)">
        <rect id="Rectángulo_18" data-name="Rectángulo 18" width="34.387" height="37.869" transform="translate(0 0.001)" fill="#fff"/>
      </g>
    </g>
    <g id="Grupo_20" data-name="Grupo 20" transform="translate(345.136 18.531)">
      <g id="Grupo_19" data-name="Grupo 19" clip-path="url(#clip-path-5)">
        <rect id="Rectángulo_19" data-name="Rectángulo 19" width="37.843" height="37.869" transform="translate(0 0.001)" fill="#fff"/>
      </g>
    </g>
    <g id="Grupo_22" data-name="Grupo 22" transform="translate(388.843 18.531)">
      <g id="Grupo_21" data-name="Grupo 21" clip-path="url(#clip-path-6)">
        <rect id="Rectángulo_20" data-name="Rectángulo 20" width="39.484" height="37.869" transform="translate(0 0.001)" fill="#fff"/>
      </g>
    </g>
    <g id="Grupo_24" data-name="Grupo 24" transform="translate(432.395 18.003)">
      <g id="Grupo_23" data-name="Grupo 23" clip-path="url(#clip-path-7)">
        <rect id="Rectángulo_21" data-name="Rectángulo 21" width="40.935" height="38.924" transform="translate(0 0.001)" fill="#fff"/>
      </g>
    </g>
    <g id="Grupo_26" data-name="Grupo 26" transform="translate(480.062 18.531)">
      <g id="Grupo_25" data-name="Grupo 25" clip-path="url(#clip-path-8)">
        <rect id="Rectángulo_22" data-name="Rectángulo 22" width="37.849" height="37.869" transform="translate(0 0.001)" fill="#fff"/>
      </g>
    </g>
    <g id="Grupo_28" data-name="Grupo 28" transform="translate(200.134 66.083)">
      <g id="Grupo_27" data-name="Grupo 27" clip-path="url(#clip-path-9)">
        <rect id="Rectángulo_23" data-name="Rectángulo 23" width="233.1" height="14.892" transform="translate(0 0.001)" fill="#fff"/>
      </g>
    </g>
  </g>
</svg>
